<svg xmlns="http://www.w3.org/2000/svg" viewBox="0 0 600 600"><defs><linearGradient id="g" x1="0" x2="1" y1="0" y2="1"><stop stop-color="#111827"/><stop offset="1" stop-color="#1D263F"/></linearGradient><linearGradient id="a" x1="0" x2="1" y1="0" y2="1"><stop stop-color="#F54B64"/><stop offset="1" stop-color="#F78361"/></linearGradient></defs><rect width="600" height="600" fill="url(#g)"/><circle cx="300" cy="230" r="98" fill="#FFFFFF"/><path d="M155 526c22-124 90-187 145-187s123 63 145 187z" fill="#4E586E"/><circle cx="242" cy="228" r="12" fill="#111827"/><circle cx="358" cy="228" r="12" fill="#111827"/><path d="M256 292c34 24 78 24 112 0" stroke="#F54B64" stroke-width="12" stroke-linecap="round" fill="none"/><circle cx="404" cy="396" r="72" fill="#FFFFFF"/><path d="M354 358c-20-36-13-58 9-59 22-1 36 24 38 56zM437 355c8-35 30-52 47-40 18 13 7 37-29 57z" fill="url(#a)"/><circle cx="384" cy="392" r="6" fill="#111827"/><circle cx="426" cy="392" r="6" fill="#111827"/></svg>
