<svg xmlns="http://www.w3.org/2000/svg" viewBox="0 0 600 600"><defs><linearGradient id="a" x1="0" x2="1" y1="0" y2="1"><stop stop-color="#F54B64"/><stop offset="1" stop-color="#F78361"/></linearGradient></defs><rect width="600" height="600" fill="#111827"/><path d="M0 460c126-62 246-74 600-38v178H0z" fill="#1D263F"/><circle cx="235" cy="215" r="76" fill="#FFFFFF"/><circle cx="365" cy="220" r="82" fill="#FFFFFF"/><path d="M110 526c26-119 82-178 134-178s102 59 126 178zM270 526c24-122 83-184 142-184s112 62 138 184z" fill="#4E586E"/><circle cx="404" cy="392" r="76" fill="#FFFFFF"/><path d="M351 356c-28-38-18-64 7-63 24 1 39 29 42 61zM449 354c18-32 42-42 56-27 14 16-5 38-40 50z" fill="url(#a)"/><circle cx="386" cy="388" r="6" fill="#111827"/><circle cx="430" cy="388" r="6" fill="#111827"/><path d="M395 426c18 13 36 13 53 0" stroke="#F54B64" stroke-width="8" stroke-linecap="round"/></svg>
