<svg xmlns="http://www.w3.org/2000/svg" viewBox="0 0 600 600"><defs><radialGradient id="r" cx=".7" cy=".25" r=".7"><stop stop-color="#F54B64" stop-opacity=".35"/><stop offset="1" stop-color="#111827"/></radialGradient><linearGradient id="a" x1="0" x2="1" y1="0" y2="1"><stop stop-color="#F54B64"/><stop offset="1" stop-color="#F78361"/></linearGradient></defs><rect width="600" height="600" fill="#111827"/><rect width="600" height="600" fill="url(#r)"/><circle cx="298" cy="220" r="94" fill="#FFFFFF"/><path d="M153 533c25-128 90-196 145-196s121 68 149 196z" fill="#4E586E"/><path d="M210 146c40-74 150-76 184 4 22 52 7 94-96 98-87 4-111-48-88-102z" fill="#1D263F"/><circle cx="260" cy="225" r="10" fill="#111827"/><circle cx="338" cy="225" r="10" fill="#111827"/><path d="M264 286c29 21 68 21 97 0" stroke="#F54B64" stroke-width="11" stroke-linecap="round" fill="none"/><circle cx="223" cy="420" r="66" fill="#FFFFFF"/><path d="M181 388c-18-35-8-55 13-53 21 2 31 24 32 51zM262 385c12-31 34-42 47-30 14 12 0 34-31 48z" fill="url(#a)"/><circle cx="209" cy="417" r="5" fill="#111827"/><circle cx="246" cy="417" r="5" fill="#111827"/></svg>
