<svg xmlns="http://www.w3.org/2000/svg" viewBox="0 0 800 600"><defs><linearGradient id="a" x1="0" x2="1" y1="0" y2="1"><stop stop-color="#F54B64"/><stop offset="1" stop-color="#F78361"/></linearGradient></defs><rect width="800" height="600" fill="#111827"/><circle cx="400" cy="286" r="170" fill="#FFFFFF"/><path d="M250 208c-56-76-34-131 20-120 54 11 93 61 110 124zM520 210c34-83 96-114 135-75 40 39 3 96-87 124z" fill="url(#a)"/><circle cx="336" cy="292" r="14" fill="#111827"/><circle cx="467" cy="292" r="14" fill="#111827"/><path d="M380 351c31 24 67 24 98 0" stroke="#F54B64" stroke-width="16" stroke-linecap="round" fill="none"/><path d="M247 523c55-79 102-115 153-115s98 36 153 115z" fill="#4E586E"/><path d="M0 505c179-62 420-83 800-37v132H0z" fill="#1D263F"/></svg>
