<svg xmlns="http://www.w3.org/2000/svg" viewBox="0 0 800 600"><defs><linearGradient id="a" x1="0" x2="1" y1="0" y2="1"><stop stop-color="#F54B64"/><stop offset="1" stop-color="#F78361"/></linearGradient></defs><rect width="800" height="600" fill="#111827"/><circle cx="400" cy="286" r="170" fill="#FFFFFF"/><path d="M250 210c-50-73-26-128 28-117 52 10 88 58 104 121zM520 212c34-78 92-105 128-65 36 39 0 94-86 116z" fill="url(#a)"/><circle cx="335" cy="292" r="15" fill="#111827"/><circle cx="468" cy="292" r="15" fill="#111827"/><path d="M381 350c31 24 65 24 96 0" stroke="#F54B64" stroke-width="16" stroke-linecap="round" fill="none"/><path d="M257 520c49-76 93-110 143-110s94 34 143 110z" fill="#4E586E"/><path d="M0 508c177-70 392-91 800-43v135H0z" fill="#1D263F"/></svg>
