<svg xmlns="http://www.w3.org/2000/svg" viewBox="0 0 800 600"><defs><linearGradient id="a" x1="0" x2="1" y1="0" y2="1"><stop stop-color="#F54B64"/><stop offset="1" stop-color="#F78361"/></linearGradient></defs><rect width="800" height="600" fill="#111827"/><circle cx="400" cy="295" r="176" fill="url(#a)"/><path d="M252 220c-59-67-47-124 5-124 53 0 96 50 119 116zM522 215c39-78 103-105 137-64 34 41-3 94-91 114z" fill="#4E586E"/><circle cx="337" cy="298" r="15" fill="#111827"/><circle cx="468" cy="298" r="15" fill="#111827"/><path d="M380 357c30 22 66 22 96 0" stroke="#FFFFFF" stroke-width="16" stroke-linecap="round" fill="none"/><path d="M250 524c54-80 102-117 150-117s96 37 150 117z" fill="#FFFFFF"/><path d="M0 511c186-72 425-94 800-43v132H0z" fill="#1D263F"/></svg>
