<svg xmlns="http://www.w3.org/2000/svg" viewBox="0 0 800 600"><defs><linearGradient id="a" x1="0" x2="1" y1="0" y2="1"><stop stop-color="#F54B64"/><stop offset="1" stop-color="#F78361"/></linearGradient></defs><rect width="800" height="600" fill="#111827"/><circle cx="400" cy="292" r="168" fill="#1D263F"/><path d="M252 218c-63-61-57-119-6-122 52-3 98 44 128 112zM529 212c33-80 93-114 132-78 39 36 7 92-78 126z" fill="#4E586E"/><circle cx="337" cy="296" r="15" fill="#FFFFFF"/><circle cx="468" cy="296" r="15" fill="#FFFFFF"/><path d="M381 354c32 23 70 23 102 0" stroke="url(#a)" stroke-width="16" stroke-linecap="round" fill="none"/><path d="M245 525c56-78 103-116 155-116s99 38 155 116z" fill="#4E586E"/><path d="M0 500c184-56 413-81 800-35v135H0z" fill="#1D263F"/></svg>
