<svg xmlns="http://www.w3.org/2000/svg" viewBox="0 0 800 600"><defs><linearGradient id="a" x1="0" x2="1" y1="0" y2="1"><stop stop-color="#F54B64"/><stop offset="1" stop-color="#F78361"/></linearGradient></defs><rect width="800" height="600" fill="#111827"/><circle cx="400" cy="288" r="165" fill="#1D263F"/><path d="M254 218c-62-63-56-125-4-128 51-3 97 45 126 114zM530 213c32-82 93-118 133-82 41 36 9 94-77 130z" fill="#4E586E"/><circle cx="338" cy="292" r="15" fill="#FFFFFF"/><circle cx="469" cy="292" r="15" fill="#FFFFFF"/><path d="M379 354c33 24 72 24 105 0" stroke="url(#a)" stroke-width="16" stroke-linecap="round" fill="none"/><path d="M247 525c54-78 101-116 153-116s99 38 153 116z" fill="#4E586E"/><path d="M0 500c188-55 432-81 800-34v134H0z" fill="#1D263F"/></svg>
