<svg xmlns="http://www.w3.org/2000/svg" viewBox="0 0 800 600"><defs><linearGradient id="a" x1="0" x2="1" y1="0" y2="1"><stop stop-color="#F54B64"/><stop offset="1" stop-color="#F78361"/></linearGradient></defs><rect width="800" height="600" fill="#111827"/><circle cx="400" cy="292" r="168" fill="#4E586E"/><path d="M255 218c-52-72-32-128 20-119 54 10 91 58 107 119zM523 215c34-80 91-110 130-74 39 37 5 93-82 120z" fill="url(#a)"/><circle cx="338" cy="296" r="14" fill="#111827"/><circle cx="468" cy="296" r="14" fill="#111827"/><path d="M381 354c31 23 68 23 99 0" stroke="#FFFFFF" stroke-width="16" stroke-linecap="round" fill="none"/><path d="M246 526c55-79 102-116 154-116s99 37 154 116z" fill="#1D263F"/><path d="M0 506c173-58 393-84 800-40v134H0z" fill="#1D263F"/></svg>
